# xmcd CD database file
#
# Track frame offsets:
#	150
#	25170
#	51943
#	76435
#	104663
#	129700
#	157063
#	182813
#	204160
#	226793
#	254670
#
# Disc length: 3760 seconds
#
# Revision: 16
# Processed by: cddbd v1.5.2PL0 Copyright (c) Steve Scherf et al.
# Submitted via: CDex 1.70beta2
#
DISCID=960eae0b
DTITLE=Fourplay - Fourplay
DYEAR=1991
DGENRE=Jazz
TTITLE0=Bali Run
TTITLE1=101 Eastbound
TTITLE2=Foreplay
TTITLE3=Moonjogger
TTITLE4=Max-O-Man
TTITLE5=After The Dance
TTITLE6=Quadrille
TTITLE7=Midnight Stroll
TTITLE8=October Morning
TTITLE9=Wish You Were Here
TTITLE10=Rain Forest
EXTD=YEAR: 1991
EXTT0=
EXTT1=
EXTT2=
EXTT3=
EXTT4=
EXTT5=
EXTT6=
EXTT7=
EXTT8=
EXTT9=
EXTT10=
PLAYORDER=
